<?xml version="1.0" encoding="UTF-8"?><svg id="a" xmlns="http://www.w3.org/2000/svg" width="595.28" height="841.89" viewBox="0 0 595.28 841.89"><defs><style>.b{letter-spacing:-.03em;}.c{letter-spacing:0em;}.d{letter-spacing:-.02em;}.e{letter-spacing:-.02em;}.f{letter-spacing:-.02em;}.g{fill:#131319;}.h{letter-spacing:0em;}.i{letter-spacing:-.03em;}.j{font-size:19px;}.j,.k{fill:#fff;font-family:Rubik-Bold, Rubik;}.l{letter-spacing:0em;}.m{letter-spacing:0em;}.n{letter-spacing:0em;}.o{letter-spacing:-.01em;}.k{font-size:15px;}.p{letter-spacing:0em;}.q{letter-spacing:-.02em;}.r{fill:none;stroke:#fff;stroke-linecap:round;stroke-miterlimit:10;stroke-width:4px;}</style></defs><rect class="g" width="595.28" height="841.89"/><line class="r" x1="297.64" y1="96" x2="297.64" y2="752"/><line class="r" x1="265.01" y1="189.41" x2="135.37" y2="189.41"/><text class="j" transform="translate(37.31 159.49)"><tspan x="0" y="0">Ma</tspan><tspan class="b" x="26.94" y="0">x</tspan><tspan class="l" x="37.64" y="0">-</tspan><tspan x="46.65" y="0">Planc</tspan><tspan class="i" x="99.56" y="0">k</tspan><tspan x="110.09" y="0">-Gymnasium</tspan></text><text class="k" transform="translate(86.12 179.65)"><tspan x="0" y="0">01</tspan><tspan class="h" x="17.65" y="0">.</tspan><tspan x="21.81" y="0">01.2000 - 01</tspan><tspan class="n" x="115.27" y="0">.</tspan><tspan x="119.43" y="0">01.2000</tspan></text><line class="r" x1="456.44" y1="442.65" x2="326.8" y2="442.65"/><text class="j" transform="translate(322.72 412.73)"><tspan class="c" x="0" y="0">S</tspan><tspan x="12.46" y="0">TE</tspan><tspan class="o" x="36.57" y="0">L</tspan><tspan x="47.67" y="0">U Maschinenbau</tspan></text><text class="k" transform="translate(323.27 432.89)"><tspan x="0" y="0">01</tspan><tspan class="h" x="17.65" y="0">.</tspan><tspan x="21.81" y="0">01.2000 - 01</tspan><tspan class="n" x="115.27" y="0">.</tspan><tspan x="119.43" y="0">01.2000</tspan></text><line class="r" x1="265.01" y1="674.46" x2="135.37" y2="674.46"/><text class="j" transform="translate(72.54 619.4)"><tspan x="0" y="0">In</tspan><tspan class="l" x="18.37" y="0">s</tspan><tspan x="28.82" y="0">titut</tspan><tspan class="f" x="73.05" y="0"> </tspan><tspan x="76.78" y="0">fü</tspan><tspan class="d" x="97.37" y="0">r</tspan><tspan class="q" x="105.62" y="0"> </tspan><tspan class="p" x="109.19" y="0">A</tspan><tspan x="122.68" y="0">u</tspan><tspan class="m" x="134.86" y="0">s</tspan><tspan x="145.27" y="0">- und </tspan><tspan class="e" x="62.53" y="22.8">W</tspan><tspan x="77.98" y="22.8">eiterbildung</tspan></text><text class="k" transform="translate(86.12 664.38)"><tspan x="0" y="0">01</tspan><tspan class="h" x="17.65" y="0">.</tspan><tspan x="21.81" y="0">01.2000 - 01</tspan><tspan class="n" x="115.27" y="0">.</tspan><tspan x="119.43" y="0">01.2000</tspan></text></svg>